<svg width="24" height="24" viewBox="0 0 24 24" fill="none" xmlns="http://www.w3.org/2000/svg">
<path d="M7 19.4845C8.4301 20.4417 10.1499 21 12 21C13.8501 21 15.5699 20.4417 17 19.4845V18.5C17 17.3954 16.1046 16.5 15 16.5H9C7.89543 16.5 7 17.3954 7 18.5V19.4845ZM5.07128 17.7443C5.42459 15.8965 7.04921 14.5 9 14.5H15C16.9508 14.5 18.5754 15.8965 18.9287 17.7443C20.2223 16.1858 21 14.1837 21 12C21 7.02944 16.9706 3 12 3C7.02944 3 3 7.02944 3 12C3 14.1837 3.77772 16.1858 5.07128 17.7443ZM12 23C5.92487 23 1 18.0751 1 12C1 5.92487 5.92487 1 12 1C18.0751 1 23 5.92487 23 12C23 18.0751 18.0751 23 12 23ZM12 13.5C9.79086 13.5 8 11.7091 8 9.5C8 7.29086 9.79086 5.5 12 5.5C14.2091 5.5 16 7.29086 16 9.5C16 11.7091 14.2091 13.5 12 13.5ZM12 11.5C13.1046 11.5 14 10.6046 14 9.5C14 8.39543 13.1046 7.5 12 7.5C10.8954 7.5 10 8.39543 10 9.5C10 10.6046 10.8954 11.5 12 11.5Z" fill="#1B1B1E"/>
</svg>
