<svg width="24" height="24" viewBox="0 0 24 24" fill="none" xmlns="http://www.w3.org/2000/svg">
<path d="M17 6.5C19.2091 6.5 21 8.29086 21 10.5V17.5C21 19.7091 19.2091 21.5 17 21.5H7C4.79086 21.5 3 19.7091 3 17.5V10.5C3 8.29086 4.79086 6.5 7 6.5V5.5C7 2.73858 9.23858 0.5 12 0.5C14.7614 0.5 17 2.73858 17 5.5V6.5ZM7 8.5C5.89543 8.5 5 9.39543 5 10.5V17.5C5 18.6046 5.89543 19.5 7 19.5H17C18.1046 19.5 19 18.6046 19 17.5V10.5C19 9.39543 18.1046 8.5 17 8.5H7ZM15 6.5V5.5C15 3.84315 13.6569 2.5 12 2.5C10.3431 2.5 9 3.84315 9 5.5V6.5H15ZM12 17.5C10.067 17.5 8.5 15.933 8.5 14C8.5 12.067 10.067 10.5 12 10.5C13.933 10.5 15.5 12.067 15.5 14C15.5 15.933 13.933 17.5 12 17.5ZM12 15.5C12.8284 15.5 13.5 14.8284 13.5 14C13.5 13.1716 12.8284 12.5 12 12.5C11.1716 12.5 10.5 13.1716 10.5 14C10.5 14.8284 11.1716 15.5 12 15.5Z" fill="#1B1B1E"/>
</svg>
