<svg width="24" height="24" viewBox="0 0 24 24" fill="none" xmlns="http://www.w3.org/2000/svg">
<path d="M22.5003 8.97753C22.5006 8.99281 22.5006 9.00805 22.5003 9.02324V17C22.5003 19.2091 20.7094 21 18.5003 21H4.50026C2.29112 21 0.500263 19.2091 0.500263 17V9.02325C0.499913 9.00805 0.499911 8.99281 0.500263 8.97753V7C0.500263 4.79086 2.29112 3 4.50026 3H18.5003C20.7094 3 22.5003 4.79086 22.5003 7V8.97753V8.97753ZM20.5003 8.25597V7C20.5003 5.89543 19.6048 5 18.5003 5H4.50026C3.39569 5 2.50026 5.89543 2.50026 7V8.25597L11.2129 10.8698C11.4004 10.926 11.6002 10.926 11.7876 10.8698L20.5003 8.25597ZM20.5003 10.344L12.3623 12.7854C11.8 12.9541 11.2005 12.9541 10.6382 12.7854L2.50026 10.344V17C2.50026 18.1046 3.39569 19 4.50026 19H18.5003C19.6048 19 20.5003 18.1046 20.5003 17V10.344Z" fill="#1B1B1E"/>
</svg>
