<svg width="24" height="24" viewBox="0 0 24 24" fill="none" xmlns="http://www.w3.org/2000/svg">
<path d="M15.9302 19.5C15.6842 21.4732 14.001 23 11.9612 23C9.92136 23 8.23816 21.4732 7.99211 19.5H4C2.89543 19.5 2 18.6046 2 17.5C2 17.0568 2.14723 16.6261 2.41855 16.2757L3.96114 14.2831V9C3.96114 4.58172 7.54286 1 11.9611 1C16.3794 1 19.9611 4.58172 19.9611 9V14.2831L21.5037 16.2757C22.1799 17.1491 22.02 18.4053 21.1466 19.0814C20.7962 19.3528 20.3655 19.5 19.9223 19.5H15.9302ZM13.8982 19.5H10.0242C10.2462 20.3626 11.0292 21 11.9612 21C12.8931 21 13.6761 20.3626 13.8982 19.5ZM5.96114 9V14.625C5.96114 14.8466 5.88753 15.0619 5.75187 15.2372L4 17.5H19.9223L18.1704 15.2372C18.0348 15.0619 17.9611 14.8466 17.9611 14.625V9C17.9611 5.68629 15.2748 3 11.9611 3C8.64743 3 5.96114 5.68629 5.96114 9Z" fill="#1B1B1E"/>
</svg>
