<svg width="24" height="24" viewBox="0 0 24 24" fill="none" xmlns="http://www.w3.org/2000/svg">
<path d="M8.63396 1.6694C9.15519 1.48681 9.72575 1.76134 9.90834 2.28257C10.0909 2.8038 9.8164 3.37435 9.29517 3.55694C9.02154 3.65279 8.75338 3.76227 8.49151 3.88491C5.46405 5.30281 3.5 8.35504 3.5 11.7844C3.5 16.5977 7.40656 20.5 12.2261 20.5C15.9682 20.5 19.2662 18.1031 20.4747 14.6142C20.6555 14.0923 21.2251 13.8158 21.7469 13.9966C22.2688 14.1773 22.5453 14.7469 22.3645 15.2688C20.8796 19.5557 16.8285 22.5 12.2261 22.5C6.30247 22.5 1.5 17.7027 1.5 11.7844C1.5 7.57475 3.91676 3.81899 7.64325 2.07371C7.96606 1.92253 8.29665 1.78756 8.63396 1.6694ZM12 2C12 1.44772 12.4477 1 13 1C18.5228 1 23 5.47715 23 11C23 11.5523 22.5523 12 22 12H13C12.4477 12 12 11.5523 12 11V2ZM14 10H20.9381C20.4869 6.38128 17.6187 3.51314 14 3.06189V10Z" fill="#1B1B1E"/>
</svg>
