<svg width="24" height="24" viewBox="0 0 24 24" fill="none" xmlns="http://www.w3.org/2000/svg">
<path d="M15.8293 20C15.4175 21.1652 14.3062 22 13 22C11.6938 22 10.5825 21.1652 10.1707 20H3C2.44772 20 2 19.5523 2 19C2 18.4477 2.44772 18 3 18H10.1707C10.5825 16.8348 11.6938 16 13 16C14.3062 16 15.4175 16.8348 15.8293 18H21C21.5523 18 22 18.4477 22 19C22 19.5523 21.5523 20 21 20H15.8293ZM9.82929 13C9.41746 14.1652 8.30622 15 7 15C5.69378 15 4.58254 14.1652 4.17071 13H3C2.44772 13 2 12.5523 2 12C2 11.4477 2.44772 11 3 11H4.17071C4.58254 9.83481 5.69378 9 7 9C8.30622 9 9.41746 9.83481 9.82929 11H21C21.5523 11 22 11.4477 22 12C22 12.5523 21.5523 13 21 13H9.82929ZM19.8293 6C19.4175 7.16519 18.3062 8 17 8C15.6938 8 14.5825 7.16519 14.1707 6H3C2.44772 6 2 5.55228 2 5C2 4.44772 2.44772 4 3 4H14.1707C14.5825 2.83481 15.6938 2 17 2C18.3062 2 19.4175 2.83481 19.8293 4H21C21.5523 4 22 4.44772 22 5C22 5.55228 21.5523 6 21 6H19.8293ZM17 6C17.5523 6 18 5.55228 18 5C18 4.44772 17.5523 4 17 4C16.4477 4 16 4.44772 16 5C16 5.55228 16.4477 6 17 6ZM7 13C7.55228 13 8 12.5523 8 12C8 11.4477 7.55228 11 7 11C6.44772 11 6 11.4477 6 12C6 12.5523 6.44772 13 7 13ZM13 20C13.5523 20 14 19.5523 14 19C14 18.4477 13.5523 18 13 18C12.4477 18 12 18.4477 12 19C12 19.5523 12.4477 20 13 20Z" fill="#1B1B1E"/>
</svg>
