<svg width="24" height="24" viewBox="0 0 24 24" fill="none" xmlns="http://www.w3.org/2000/svg">
<path d="M9 7.5H17C19.2091 7.5 21 9.29086 21 11.5V18.5C21 20.7091 19.2091 22.5 17 22.5H7C4.79086 22.5 3 20.7091 3 18.5V11.5C3 9.29086 4.79086 7.5 7 7.5V6.5C7 3.73858 9.23858 1.5 12 1.5C13.4654 1.5 14.8301 2.13531 15.7731 3.21916C16.1357 3.6358 16.0918 4.26744 15.6752 4.62997C15.2585 4.9925 14.6269 4.94863 14.2643 4.53199C13.6972 3.88019 12.8805 3.5 12 3.5C10.3431 3.5 9 4.84315 9 6.5V7.5ZM7 9.5C5.89543 9.5 5 10.3954 5 11.5V18.5C5 19.6046 5.89543 20.5 7 20.5H17C18.1046 20.5 19 19.6046 19 18.5V11.5C19 10.3954 18.1046 9.5 17 9.5H7ZM12 18.5C10.067 18.5 8.5 16.933 8.5 15C8.5 13.067 10.067 11.5 12 11.5C13.933 11.5 15.5 13.067 15.5 15C15.5 16.933 13.933 18.5 12 18.5ZM12 16.5C12.8284 16.5 13.5 15.8284 13.5 15C13.5 14.1716 12.8284 13.5 12 13.5C11.1716 13.5 10.5 14.1716 10.5 15C10.5 15.8284 11.1716 16.5 12 16.5Z" fill="#1B1B1E"/>
</svg>
